HIERARCHY
ROOT Hips
{
	OFFSET 0.000000 0.794594 0.001814
	CHANNELS 6 Xposition Yposition Zposition Zrotation Xrotation Yrotation
	JOINT Spine
	{
		OFFSET -0.000000 0.051920 0.010783
		CHANNELS 3 Zrotation Xrotation Yrotation
		JOINT Chest
		{
			OFFSET 0.000000 0.111800 0.002643
			CHANNELS 3 Zrotation Xrotation Yrotation
			JOINT UpperChest
			{
				OFFSET 0.000011 0.124994 0.000757
				CHANNELS 3 Zrotation Xrotation Yrotation
				JOINT Neck
				{
					OFFSET 0.000112 0.117645 -0.020286
					CHANNELS 3 Zrotation Xrotation Yrotation
					JOINT Head
					{
						OFFSET 0.000009 0.074358 -0.000161
						CHANNELS 3 Zrotation Xrotation Yrotation
						JOINT LeftEye
						{
							OFFSET 0.019846 0.051735 0.040589
							CHANNELS 3 Zrotation Xrotation Yrotation
							End Site
							{
								OFFSET -0.000199 0.054090 0.042333
							}
						}
						JOINT RightEye
						{
							OFFSET -0.020226 0.051740 0.040395
							CHANNELS 3 Zrotation Xrotation Yrotation
							End Site
							{
								OFFSET -0.000199 0.054090 0.042333
							}
						}
					}
				}
				JOINT LeftShoulder
				{
					OFFSET 0.022481 0.089795 -0.017340
					CHANNELS 3 Zrotation Xrotation Yrotation
					JOINT LeftUpperArm
					{
						OFFSET 0.087730 -0.000010 0.000425
						CHANNELS 3 Zrotation Xrotation Yrotation
						JOINT LeftLowerArm
						{
							OFFSET 0.210364 0.001461 0.000713
							CHANNELS 3 Zrotation Xrotation Yrotation
							JOINT LeftHand
							{
								OFFSET 0.205444 0.001377 0.000711
								CHANNELS 3 Zrotation Xrotation Yrotation
								JOINT LeftIndexProximal
								{
									OFFSET 0.064499 0.001525 0.020305
									CHANNELS 3 Zrotation Xrotation Yrotation
									JOINT LeftIndexIntermediate
									{
										OFFSET 0.033222 0.000012 0.000212
										CHANNELS 3 Zrotation Xrotation Yrotation
										JOINT LeftIndexDistal
										{
											OFFSET 0.020455 0.000007 0.000130
											CHANNELS 3 Zrotation Xrotation Yrotation
											End Site
											{
												OFFSET 0.020455 0.000007 0.000130
											}
										}
									}
								}
								JOINT LeftLittleProximal
								{
									OFFSET 0.062854 -0.001936 -0.027845
									CHANNELS 3 Zrotation Xrotation Yrotation
									JOINT LeftLittleIntermediate
									{
										OFFSET 0.031399 0.000011 0.000200
										CHANNELS 3 Zrotation Xrotation Yrotation
										JOINT LeftLittleDistal
										{
											OFFSET 0.018096 0.000006 0.000115
											CHANNELS 3 Zrotation Xrotation Yrotation
											End Site
											{
												OFFSET 0.018096 0.000006 0.000115
											}
										}
									}
								}
								JOINT LeftMiddleProximal
								{
									OFFSET 0.066609 0.003801 0.003549
									CHANNELS 3 Zrotation Xrotation Yrotation
									JOINT LeftMiddleIntermediate
									{
										OFFSET 0.037005 0.000013 0.000236
										CHANNELS 3 Zrotation Xrotation Yrotation
										JOINT LeftMiddleDistal
										{
											OFFSET 0.022829 0.000008 0.000145
											CHANNELS 3 Zrotation Xrotation Yrotation
											End Site
											{
												OFFSET 0.022829 0.000008 0.000145
											}
										}
									}
								}
								JOINT LeftRingProximal
								{
									OFFSET 0.066900 0.003343 -0.012193
									CHANNELS 3 Zrotation Xrotation Yrotation
									JOINT LeftRingIntermediate
									{
										OFFSET 0.034327 0.000012 0.000219
										CHANNELS 3 Zrotation Xrotation Yrotation
										JOINT LeftRingDistal
										{
											OFFSET 0.019811 0.000007 0.000126
											CHANNELS 3 Zrotation Xrotation Yrotation
											End Site
											{
												OFFSET 0.019811 0.000007 0.000126
											}
										}
									}
								}
								JOINT LeftThumbProximal
								{
									OFFSET 0.001848 -0.006641 0.017858
									CHANNELS 3 Zrotation Xrotation Yrotation
									JOINT LeftThumbIntermediate
									{
										OFFSET 0.030326 -0.003605 0.035110
										CHANNELS 3 Zrotation Xrotation Yrotation
										JOINT LeftThumbDistal
										{
											OFFSET 0.019149 -0.004135 0.020870
											CHANNELS 3 Zrotation Xrotation Yrotation
											End Site
											{
												OFFSET 0.019149 -0.004134 0.020871
											}
										}
									}
								}
							}
						}
					}
				}
				JOINT RightShoulder
				{
					OFFSET -0.022291 0.089803 -0.017557
					CHANNELS 3 Zrotation Xrotation Yrotation
					JOINT RightUpperArm
					{
						OFFSET -0.087729 0.000010 -0.000425
						CHANNELS 3 Zrotation Xrotation Yrotation
						JOINT RightLowerArm
						{
							OFFSET -0.210401 0.000107 -0.000861
							CHANNELS 3 Zrotation Xrotation Yrotation
							JOINT RightHand
							{
								OFFSET -0.205447 0.000040 -0.000840
								CHANNELS 3 Zrotation Xrotation Yrotation
								JOINT RightIndexProximal
								{
									OFFSET -0.064690 0.001511 0.019688
									CHANNELS 3 Zrotation Xrotation Yrotation
									JOINT RightIndexIntermediate
									{
										OFFSET -0.033222 0.000005 -0.000106
										CHANNELS 3 Zrotation Xrotation Yrotation
										JOINT RightIndexDistal
										{
											OFFSET -0.020455 0.000003 -0.000065
											CHANNELS 3 Zrotation Xrotation Yrotation
											End Site
											{
												OFFSET -0.020455 0.000003 -0.000065
											}
										}
									}
								}
								JOINT RightLittleProximal
								{
									OFFSET -0.062585 -0.001949 -0.028444
									CHANNELS 3 Zrotation Xrotation Yrotation
									JOINT RightLittleIntermediate
									{
										OFFSET -0.031399 0.000005 -0.000100
										CHANNELS 3 Zrotation Xrotation Yrotation
										JOINT RightLittleDistal
										{
											OFFSET -0.018096 0.000003 -0.000057
											CHANNELS 3 Zrotation Xrotation Yrotation
											End Site
											{
												OFFSET -0.018096 0.000003 -0.000057
											}
										}
									}
								}
								JOINT RightMiddleProximal
								{
									OFFSET -0.066640 0.003787 0.002913
									CHANNELS 3 Zrotation Xrotation Yrotation
									JOINT RightMiddleIntermediate
									{
										OFFSET -0.037006 0.000005 -0.000118
										CHANNELS 3 Zrotation Xrotation Yrotation
										JOINT RightMiddleDistal
										{
											OFFSET -0.022829 0.000003 -0.000072
											CHANNELS 3 Zrotation Xrotation Yrotation
											End Site
											{
												OFFSET -0.022829 0.000003 -0.000072
											}
										}
									}
								}
								JOINT RightRingProximal
								{
									OFFSET -0.066782 0.003329 -0.012831
									CHANNELS 3 Zrotation Xrotation Yrotation
									JOINT RightRingIntermediate
									{
										OFFSET -0.034327 0.000005 -0.000109
										CHANNELS 3 Zrotation Xrotation Yrotation
										JOINT RightRingDistal
										{
											OFFSET -0.019810 0.000003 -0.000063
											CHANNELS 3 Zrotation Xrotation Yrotation
											End Site
											{
												OFFSET -0.019810 0.000003 -0.000063
											}
										}
									}
								}
								JOINT RightThumbProximal
								{
									OFFSET -0.002017 -0.006641 0.017839
									CHANNELS 3 Zrotation Xrotation Yrotation
									JOINT RightThumbIntermediate
									{
										OFFSET -0.032510 -0.005699 0.032803
										CHANNELS 3 Zrotation Xrotation Yrotation
										JOINT RightThumbDistal
										{
											OFFSET -0.020784 -0.005081 0.019013
											CHANNELS 3 Zrotation Xrotation Yrotation
											End Site
											{
												OFFSET -0.020784 -0.005081 0.019013
											}
										}
									}
								}
							}
						}
					}
				}
			}
		}
	}
	JOINT LeftUpperLeg
	{
		OFFSET 0.077122 -0.039594 -0.005714
		CHANNELS 3 Zrotation Xrotation Yrotation
		JOINT LeftLowerLeg
		{
			OFFSET 0.000000 -0.343087 0.003694
			CHANNELS 3 Zrotation Xrotation Yrotation
			JOINT LeftFoot
			{
				OFFSET 0.000000 -0.401029 -0.031329
				CHANNELS 3 Zrotation Xrotation Yrotation
				JOINT LeftToes
				{
					OFFSET 0.000000 -0.001594 0.127952
					CHANNELS 3 Zrotation Xrotation Yrotation
					End Site
					{
						OFFSET -0.000000 -0.001594 0.127952
					}
				}
			}
		}
	}
	JOINT RightUpperLeg
	{
		OFFSET -0.077122 -0.039594 -0.005714
		CHANNELS 3 Zrotation Xrotation Yrotation
		JOINT RightLowerLeg
		{
			OFFSET -0.000000 -0.343087 0.003695
			CHANNELS 3 Zrotation Xrotation Yrotation
			JOINT RightFoot
			{
				OFFSET 0.000000 -0.401029 -0.031326
				CHANNELS 3 Zrotation Xrotation Yrotation
				JOINT RightToes
				{
					OFFSET 0.000000 -0.001593 0.127952
					CHANNELS 3 Zrotation Xrotation Yrotation
					End Site
					{
						OFFSET -0.000000 -0.001593 0.127952
					}
				}
			}
		}
	}
}
MOTION
Frames: 4
Frame Time: 0.016667
0.000000 0.794594 0.001814 -0.000000 0.000000 -0.000000 0.000000 -0.000000 0.000000 0.000000 0.000000 0.000000 -0.000000 -0.000000 -0.000000 -0.000000 -0.000000 -0.000000 -0.000000 0.000001 -0.000000 0.000000 -0.000001 -0.000000 -0.000000 -0.000003 -0.000000 -0.000000 -0.000000 -0.000000 -0.000000 0.000003 0.000000 0.000000 -0.000001 -0.000000 0.000000 0.000002 -0.000000 0.000000 0.000000 -0.000000 0.000000 0.000000 -0.000000 0.000000 0.000000 -0.000000 0.000000 0.000000 -0.000000 0.000000 -0.000000 -0.000000 0.000000 0.000000 -0.000000 0.000000 0.000000 -0.000000 0.000000 0.000000 -0.000000 0.000000 0.000000 -0.000000 0.000000 0.000000 -0.000000 0.000000 -0.000000 -0.000000 0.000000 0.000000 -0.000000 -0.000001 0.000001 0.000000 -0.000004 -0.000003 0.000000 -0.000002 -0.000002 -0.000001 -0.000000 -0.000001 -0.000000 -0.000000 -0.000000 0.000000 0.000000 0.000000 0.000000 -0.000000 0.000000 0.000000 0.000000 0.000000 -0.000000 0.000000 0.000000 0.000000 0.000000 0.000000 0.000000 0.000000 0.000000 -0.000000 0.000000 -0.000000 0.000000 0.000000 -0.000000 0.000000 0.000000 0.000000 -0.000000 0.000000 -0.000000 0.000000 -0.000000 -0.000000 0.000000 0.000000 -0.000000 0.000000 0.000000 0.000000 -0.000000 0.000000 0.000000 0.000000 -0.000000 -0.000001 0.000005 -0.000000 0.000000 -0.000000 0.000001 -0.000001 0.000004 0.000000 -0.000000 0.000000 -0.000000 -0.000000 0.000000 0.000000 -0.000000 -0.000000 -0.000000 -0.000000 0.000000 -0.000000 0.000000 0.000000 -0.000000 -0.000000 0.000000 -0.000000 -0.000000 -0.000000 -0.000000 -0.000000 -0.000000 
-0.002301 0.791763 0.015186 -1.414388 -0.044969 -7.709754 -1.599501 0.878731 -0.284296 3.590966 -3.844948 -0.042297 -0.103852 -3.584396 0.067445 -4.959667 -2.622592 -1.608984 -10.284591 8.906869 5.498216 0.000066 0.000014 0.000017 0.000066 0.000013 0.000017 -4.923508 -0.059647 -0.687546 -24.003853 57.180551 -49.866409 5.586151 1.668804 -71.252062 -13.078028 -4.927980 -8.623683 -14.449354 -2.316586 4.063881 -26.368333 -0.480762 -4.658177 -26.368719 -0.480759 -4.658110 -16.783069 4.100124 -12.826018 -26.484557 0.375489 -3.716013 -26.485489 0.375524 -3.715974 -17.976093 -0.600445 -0.881727 -26.484999 0.375570 -3.716195 -26.485378 0.375587 -3.716167 -17.665378 1.095763 -5.108576 -26.485109 0.375618 -3.716221 -26.485425 0.375577 -3.716152 10.247493 -6.352291 19.141521 -9.602618 4.581040 19.616030 -7.502195 3.546073 16.061675 3.472170 -0.061161 0.504262 36.718110 61.156947 44.955581 -1.095515 -0.352794 30.502942 4.537314 30.182910 10.259048 31.942343 -2.884159 0.497895 31.579042 -0.318597 5.576487 31.579766 -0.318586 5.576499 31.118373 4.156784 9.335074 31.713364 0.652159 4.407463 31.713989 0.652159 4.407439 31.915179 -1.334973 1.655291 31.713593 0.652211 4.407663 31.713941 0.652209 4.407650 31.713630 0.651963 4.407367 31.713661 0.652222 4.407655 31.713945 0.652172 4.407673 -6.913650 -4.802220 -13.871377 4.856159 1.366875 -23.927831 3.634762 0.788377 -19.580686 0.519857 -6.760926 -6.647634 0.008624 17.447553 0.025585 -4.571156 -7.981237 2.023511 -0.000000 -0.000000 0.000000 1.988835 -0.383366 26.147346 -0.002438 12.817256 -0.018062 6.130604 -5.006997 -2.380219 -0.000000 -0.000000 -0.000001 
-0.002312 0.791758 0.015238 -1.420878 -0.041680 -7.709882 -1.606428 0.874123 -0.277318 3.589518 -3.845654 -0.041728 -0.103576 -3.586898 0.067757 -4.960377 -2.623101 -1.606200 -10.252259 8.889701 5.519380 -0.000029 0.000202 0.000023 -0.000030 0.000201 0.000023 -4.923522 -0.059648 -0.687557 -26.947330 55.975186 -47.228473 4.985239 1.472818 -68.430163 -13.202954 -6.923481 -9.049962 -18.092821 -2.287878 3.937705 -31.928570 -0.199786 -4.765038 -30.844677 -0.294269 -4.726668 -23.732324 5.265060 -12.049436 -34.096171 0.857399 -3.547634 -33.875682 0.843375 -3.550871 -23.318925 -0.312290 -0.787337 -32.741905 0.771201 -3.567114 -32.407687 0.749835 -3.571502 -23.800487 1.685125 -4.776786 -33.972862 0.849659 -3.549689 -33.284212 0.805794 -3.559626 9.985920 -5.035989 20.189218 -11.152954 5.071624 24.043415 -9.329498 4.243881 21.697902 3.472176 -0.061160 0.504259 38.441312 59.922213 43.615840 -1.068545 -0.329294 29.587034 4.722297 27.242908 11.019939 35.690696 -2.567868 0.431606 37.164446 0.045573 5.644350 36.413661 -0.045874 5.624228 37.348267 4.930534 8.684084 38.287732 1.138661 4.202385 38.311586 1.140369 4.201917 37.073830 -0.996273 1.563593 37.212483 1.057687 4.223233 37.190575 1.056040 4.223627 37.408362 1.130327 4.134473 37.671140 1.092297 4.214640 37.713740 1.095444 4.213851 -6.567641 -4.008461 -16.409200 4.584589 1.521598 -23.693397 3.833004 0.825898 -25.047286 0.527044 -6.745125 -6.647296 0.010606 17.437032 0.025635 -4.571402 -7.988748 2.022637 0.000000 0.000000 -0.000000 1.993923 -0.380236 26.150214 -0.000530 12.809518 -0.018008 6.128228 -5.005365 -2.383680 -0.000001 -0.000000 0.000001 
-0.002400 0.791729 0.015283 -1.424523 -0.030986 -7.708141 -1.613455 0.874145 -0.266614 3.583801 -3.846331 -0.041006 -0.104362 -3.592789 0.067957 -4.961309 -2.623208 -1.603448 -10.128201 8.831693 5.494703 0.000078 -0.000015 -0.000011 0.000077 -0.000018 -0.000011 -4.923508 -0.059650 -0.687553 -30.788471 54.993944 -43.433945 4.639712 1.347388 -66.709891 -12.982083 -8.586815 -9.374068 -21.812930 -1.658798 3.924979 -37.383592 0.115257 -4.690638 -35.046780 -0.157718 -4.626252 -31.220928 6.054323 -10.650543 -41.925760 1.260957 -3.173219 -41.448873 1.233725 -3.183584 -28.827906 0.267490 -0.363096 -39.003799 1.092998 -3.233511 -38.282162 1.051062 -3.247016 -30.244672 2.269883 -4.041224 -41.659216 1.245875 -3.179286 -40.172844 1.160605 -3.210524 8.618735 -1.759374 20.025570 -12.634394 5.426238 28.426083 -11.215075 4.812787 27.633202 3.472176 -0.061164 0.504267 41.047897 58.118715 41.101599 -1.071592 -0.331846 29.687608 4.669215 23.884731 11.900686 38.850919 -1.692411 -0.178276 42.457559 0.408757 5.487535 40.838924 0.144377 5.467920 43.444480 5.270036 7.675814 44.726476 1.512909 3.781108 44.777119 1.516287 3.779788 41.852213 -0.421207 1.041299 42.406175 1.354590 3.839435 42.358480 1.351300 3.840548 42.821728 1.568752 3.492506 43.395713 1.422412 3.815467 43.487265 1.428619 3.813188 -4.760850 -2.179530 -18.644089 3.833021 1.934434 -23.043048 3.935856 0.889083 -30.644733 0.538130 -6.858852 -6.641786 0.000152 17.554643 0.025597 -4.578164 -8.003431 2.012921 0.000001 -0.000000 -0.000000 2.011660 -0.388488 26.158124 -0.003498 12.823263 -0.018036 6.120361 -5.016331 -2.393616 -0.000001 -0.000001 0.000001 
